<svg width="24" height="24" viewBox="0 0 24 24" fill="none" xmlns="http://www.w3.org/2000/svg">
<path fill-rule="evenodd" clip-rule="evenodd" d="M1.24966 12C1.24966 6.06275 6.06275 1.24966 12 1.24966C17.9372 1.24966 22.7503 6.06275 22.7503 12C22.7503 17.9372 17.9372 22.7503 12 22.7503C6.06275 22.7503 1.24966 17.9372 1.24966 12ZM12 0C5.37258 0 0 5.37258 0 12C0 18.6274 5.37258 24 12 24C18.6274 24 24 18.6274 24 12C24 5.37258 18.6274 0 12 0Z" fill="black"/>
<path d="M11.114 13.863V13.0011C11.114 12.7569 11.142 12.5271 11.212 12.3116C11.282 12.0961 11.38 11.8807 11.52 11.6796C11.66 11.4785 11.786 11.3061 11.912 11.1624C12.038 11.0188 12.192 10.8464 12.402 10.6309L12.542 10.4873C12.766 10.2287 12.948 10.0133 13.074 9.86961C13.2 9.72597 13.312 9.5105 13.424 9.25193C13.536 8.99337 13.606 8.74917 13.606 8.50497C13.606 8.0884 13.48 7.75801 13.242 7.51381C13.004 7.26961 12.682 7.1547 12.276 7.1547C11.954 7.1547 11.646 7.24088 11.352 7.41326C11.058 7.58564 10.806 7.81547 10.596 8.0884L9 6.59448C9.392 6.10608 9.882 5.71823 10.498 5.43094C11.114 5.14365 11.758 5 12.444 5C12.92 5 13.368 5.07182 13.788 5.21547C14.208 5.35912 14.586 5.56022 14.922 5.83315C15.258 6.10608 15.524 6.45083 15.72 6.89613C15.916 7.34144 16.014 7.82983 16.014 8.37569C16.014 8.979 15.874 9.5105 15.608 9.98453C15.342 10.4586 14.978 10.9039 14.502 11.3635C14.432 11.4354 14.306 11.5503 14.11 11.7227C13.914 11.895 13.788 12.0243 13.718 12.1105C13.648 12.1967 13.55 12.2972 13.438 12.4265C13.326 12.5558 13.242 12.6851 13.2 12.7856C13.158 12.8862 13.13 13.0155 13.116 13.1304L13.046 13.8773H11.1L11.114 13.863ZM12.136 18C11.744 18 11.422 17.8707 11.142 17.5978C10.862 17.3249 10.736 16.9945 10.736 16.6066C10.736 16.2188 10.876 15.9028 11.142 15.6298C11.408 15.3569 11.744 15.2276 12.122 15.2276C12.5 15.2276 12.808 15.3569 13.074 15.6298C13.34 15.9028 13.466 16.2331 13.466 16.6066C13.466 16.9801 13.34 17.3249 13.074 17.5978C12.808 17.8707 12.486 18 12.122 18H12.136Z" fill="black"/>
</svg>
