<svg width="24" height="24" viewBox="0 0 24 24" fill="none" xmlns="http://www.w3.org/2000/svg">
<path fill-rule="evenodd" clip-rule="evenodd" d="M2.84187 -3.05176e-05C1.27235 -3.05176e-05 0 1.27233 0 2.84186V15.0528C0 16.6223 1.27234 17.8947 2.84187 17.8947H4.99534V22.2683V23.6643L6.03297 22.7305L11.406 17.8947H21.1581C22.7277 17.8947 24 16.6223 24 15.0528V2.84186C24 1.27233 22.7277 -3.05176e-05 21.1581 -3.05176e-05H2.84187ZM1.24344 2.84186C1.24344 1.95905 1.95908 1.24341 2.84187 1.24341H21.1581C22.0409 1.24341 22.7566 1.95905 22.7566 2.84186V15.0528C22.7566 15.9356 22.0409 16.6512 21.1581 16.6512H11.1674H10.9289L10.7515 16.8108L6.23878 20.8724V17.273V16.6512H5.61706H2.84187C1.95908 16.6512 1.24344 15.9356 1.24344 15.0528V2.84186ZM4.98883 11.2989H7.79329V14.1034H4.98883V11.2989ZM13.4021 11.2989H10.5977V14.1034H13.4021V11.2989ZM16.2068 11.2989H19.0113V14.1034H16.2068V11.2989Z" fill="black"/>
</svg>
