<svg width="120" height="52" viewBox="0 0 120 52" fill="none" xmlns="http://www.w3.org/2000/svg">
  <!-- Background Circle -->
  <circle cx="60" cy="26" r="26" fill="#9F703F"/>

  <!-- Centered Path -->
  <g transform="translate(0, 10)">
    <path d="M72 0C74.25 0 76.4 0.9 78 2.5C81.35 5.8 81.35 11.2 78 14.5C76.4 16.1 74.25 17 72 17C71.664 17 71.3302 16.9799 71.0001 16.9404L71 22.5769C71 24.189 69.7043 25.5 68.1111 25.5H47.8889C46.2957 25.5 45 24.189 45 22.5769V9.42308C45 7.811 46.2957 6.5 47.8889 6.5L63.761 6.50053C64.1132 5.03178 64.8595 3.64048 66 2.5C67.6 0.9 69.75 0 72 0ZM64.8552 13.0767L46.4444 13.0769V22.5769C46.4444 23.3837 47.0916 24.0385 47.8889 24.0385H68.1111C68.9084 24.0385 69.5556 23.3837 69.5556 22.5769L69.5555 16.6372C68.2276 16.2342 67.0053 15.5053 66 14.5C65.5596 14.0596 65.178 13.5819 64.8552 13.0767ZM56.5556 16V17.4615H49.3333V16H56.5556ZM75.6985 5.04695L71.0747 10.574L68.4577 7.99472L67.1747 8.99588L69.9949 11.7757L70.2097 11.607L69.9513 11.9172L71.1122 12.6819L76.8594 5.81162L75.6985 5.04695ZM63.5419 7.96164L47.8889 7.96154C47.093 7.96154 46.4444 8.61631 46.4444 9.42308V10.1538L63.6856 10.1536C63.5438 9.43143 63.4959 8.69407 63.5419 7.96164Z" fill="#FFFFFF"/>
  </g>
</svg>